# xmcd
#
# Track frame offsets: 
#        150
#        15547
#        33749
#        51965
#        70158
#        85290
#        106986
#        126932
#        139302
#        155953
#
# Disc length: 2321 seconds
#
# Revision: 0
# Processed by: cddbd v1.5.2PL0 Copyright (c) Steve Scherf et al.
# Submitted via: ExactAudioCopy v0.99pb5
#
DISCID=90090f0a
DTITLE=Louise Hoffsten - L
DYEAR=2015
DGENRE=Blues
TTITLE0=Lucky Me
TTITLE1=If You Wanna See A Rainbow
TTITLE2=My Dignity
TTITLE3=I Feel Like Running
TTITLE4=Hold the Light
TTITLE5=Starhead and Scarecrow
TTITLE6=Out of Words
TTITLE7=Always on the Run
TTITLE8=Not Bulletproof
TTITLE9=Other Side of the Glass
EXTD=
EXTT0=
EXTT1=
EXTT2=
EXTT3=
EXTT4=
EXTT5=
EXTT6=
EXTT7=
EXTT8=
EXTT9=
PLAYORDER=
